# xmcd
#
# Track frame offsets:
#	150
#	15040
#	33415
#	54720
#	80435
#	104575
#	124320
#	143480
#	166415
#	188075
#	206790
#
# Disc length: 2781 seconds
#
# Revision: 0
# Processed by: cddbd v1.5.1PL0 Copyright (c) Steve Scherf et al.
# Submitted via: dBpowerAMP V4.0
#
DISCID=8f0adb0b
DTITLE=Talking Blues - Tua Face
DYEAR=1996
DGENRE=Blues
TTITLE0=Sou uma criança não entendo nada
TTITLE1=O rapé
TTITLE2=Como dois e dois
TTITLE3=Johnny Walker
TTITLE4=Não venha me dizer
TTITLE5=Tua face
TTITLE6=All Your Love
TTITLE7=Walking By Myself
TTITLE8=Anything for Your Love
TTITLE9=Talkin' Blues
TTITLE10=Vinheta ateliê
EXTD=
EXTT0=
EXTT1=
EXTT2=
EXTT3=
EXTT4=
EXTT5=
EXTT6=
EXTT7=
EXTT8=
EXTT9=
EXTT10=
PLAYORDER=
